<?xml version="1.0" encoding="UTF-8"?>
<svg id="katman_1" xmlns="http://www.w3.org/2000/svg" version="1.1" viewBox="0 0 1780.01 849.04">
  <!-- Generator: Adobe Illustrator 29.6.1, SVG Export Plug-In . SVG Version: 2.1.1 Build 9)  -->
  <path d="M661.11,643.78l-44.07-95.27-87.03-1.46v-12.01h79.51c.23,0,1.88-1.53,1.37-2.34l-154.84-334.2-2.57.5-65.83,132.17c-3.33,7.35-7.21.87-12.57-.21-.74-1.02,3.45-10.31,4.25-12.11,20.49-46.11,46.44-90.04,66.75-136.29.31-1.96-.1-3.6-.64-5.45-1.9-6.52-15.16-28.48-19.41-35.58-39.65-66.11-102.86-122.83-183.52-127.48C108.73,6.33,47.96,142.27,143.01,237.54c85.31,85.51,222.37,107.43,302.97,206.03,124.4,152.18,27.26,381.33-168.43,397.52-33.94,2.81-72.64,1.69-106.99,2.01-56.19.53-112.44-.13-168.62-.48l-1.94-241.57c2.89.49,10.94-1.11,12.53.98,1.3,1.71,2.87,19.18,3.73,23.27,24.69,118.75,128.35,206.33,251.29,202.79,73.56-2.12,141.82-44.92,147.45-123.55,5.98-83.68-50.5-138.66-116.07-178.9-2.09-1.28-8.59-5.82-10.4-5.67l-107.79,213.8c-2.48,2.81-12.34-1.46-11.34-6.74.65-3.44,5.15-11.37,6.92-15.17,30.63-65.31,65.77-128.75,97.39-193.6,4.03-6.84-2.28-8.28-7.19-11.23-58.24-34.95-119.53-60.24-170.03-107.94C-55.67,255.36,27.67,3.77,240.46,0l223.55.04c.24,13.16-.32,26.38-.05,39.55.64,30.6-1.05,65.08.99,95,.17,2.45.22,6.5,3.51,5.49L534.11.16l3.93.35c80.21,177.71,163.4,354.04,242.93,532.07l2.06,1.94,123.53.47c5.04-.96,4.97,12.39.95,13.05l-117.08-.07.03,4.09,32.72,77.82.64,213.16-23.08-.02-95.75-282.98-43.88,83.73Z"/>
  <path d="M795.01,843.04c-.18,0-1.55,1.06-3.38,1.07-31.21.21-62.48.06-93.68-.51l-44.45-136.57-69.51,142.01-73.5-127.99s-21.8,63.26-32.52,93.46c-2.7,7.62-5.39,25.86-12.01,29.99s-13.16.68-12.99-6.9c.16-7.01,13.4-30.46,16.8-39.29,27.38-70.93,46.38-147.55,72.94-219.06l1.79-3.19,79.51,153.97,78.97-153.99,92.01,266.99Z"/>
  <path d="M1049.01,843.04v-256c33.25,1.07,67.38-1.42,100.54-.04,32.6,1.35,67.82,7.32,93.93,28.07,54.53,43.34,57.94,132.03,11.56,182.5-54.95,59.78-132.95,43.06-206.03,45.47ZM1141.01,601.54v226c0,1.1,2.44,1.43,3.45,1.55,20.43,2.4,53.33-6.7,71.22-16.88,82.65-47.03,73.77-180.94-20.46-205.89-15.64-4.14-29.7-4.74-45.7-5.29-2.03-.07-7.57-2.53-8.51.51Z"/>
  <path d="M829.01,636.04c.04-16.32-.02-32.68,0-49.01,48.84-.21,97.71.28,146.55.05,4.12-.02,7.19-1.28,11.83-.92,7.25.55,16.12,3.35,11.49,12.25-4.3,8.26-21.73,2.05-29.32,1.59-15.82-.96-32.62.8-48.54.04v55c15.5-.13,31.03.16,46.54.04,5.67-.04,18.57-3.33,18.57,6.46,0,11.2-15.17,6.58-21.57,6.46-14.5-.29-29.05.3-43.54.04v162c17.65-.69,35.96.91,53.54.04,6.48-.32,27.96-7.07,25.29,6.23-.85,4.23-5.67,5.93-9.42,6.65-53.8.34-107.62-.16-161.41.09.12-68.98-.16-138.02,0-207Z"/>
  <path d="M1780.01,843.04h-95l-13.9-31.38c-31.82-1.46-64.35-.16-96.45-.66-4.55,7.1-12.5,43.55-26.18,33.06-9.51-7.3,10.78-25.01,10.52-34-6.77-.25-17.27-3.35-14.57-12.05,2.48-8.01,15.52-3.12,21.44-3.08l90.63-218.86,123.5,266.98ZM1665,798.03l-45.99-96.99-38.01,94.99c27.83,3.34,56,1.58,84,2Z"/>
  <path d="M1412.51,587.04l52,107.98c20.47-35.24,41.58-70.28,58.64-107.34,8.7-7.15,17.42.03,12.33,10.33-39.73,72.04-80.33,143.63-120.65,215.35-3.74,6.65-12.58,26.81-17.87,30.13-3.27,2.05-7.46,2.1-11.04,1.11-3.88-1.07-3.32-8.28-2.44-11.59,1.18-4.42,16.11-22.77,19.95-29.05,2.09-3.42,10.84-17.38,10.42-20.18l-103-189.07-2.83-7.67h104.5Z"/>
</svg>